PathFileType	4	(X/Y/Z)	../Python\walking\Walking09\task.trc
DataRate	CameraRate	NumFrames	NumMarkers	Units	OrigDataRate	OrigDataStartFrame	OrigNumFrames
200.000000	200.000000	4	30	mm	200.000000	584	668
Frame#	Time	CLAV			STRN			RASI			LASI			RTH1			RTH2			RTH3			RTB1			RTB2			RTB3			RHEE			RD5M			RTOE			LTH1			LTH3			LTB1			LTB3			LTOE			LD5M			LPSI			LTB2			LTH2			RPSI			PE02			T10			PE03			PE01			C7			LHEE			RBAK			
		X1	Y1	Z1	X2	Y2	Z2	X3	Y3	Z3	X4	Y4	Z4	X5	Y5	Z5	X6	Y6	Z6	X7	Y7	Z7	X8	Y8	Z8	X9	Y9	Z9	X10	Y10	Z10	X11	Y11	Z11	X12	Y12	Z12	X13	Y13	Z13	X14	Y14	Z14	X15	Y15	Z15	X16	Y16	Z16	X17	Y17	Z17	X18	Y18	Z18	X19	Y19	Z19	X20	Y20	Z20	X21	Y21	Z21	X22	Y22	Z22	X23	Y23	Z23	X24	Y24	Z24	X25	Y25	Z25	X26	Y26	Z26	X27	Y27	Z27	X28	Y28	Z28	X29	Y29	Z29	X30	Y30	Z30	

585	2.92	2388.733886718751	1421.547607421875	196.9906158447267	2455.663330078126	1232.103637695313	194.7989654541017	2449.992919921876	1042.183227539063	334.8878784179689	2427.877685546876	991.5374145507817	64.48537445068362	2445.181884765626	780.3004760742192	381.6290588378907	2392.136474609376	748.7172851562502	384.1565856933596	2415.250976562501	708.1226196289065	365.4035949707032	2450.075195312501	364.838836669922	307.977264404297	2412.769042968751	316.6224975585939	306.9037170410157	2450.197753906251	286.847137451172	293.4814758300782	2387.756347656251	19.37481307983399	192.2552947998048	2546.609863281251	10.40241718292237	271.8375244140626	2601.166259765626	27.61895179748537	228.3184661865236	2339.052490234376	680.651062011719	51.54459762573245	2360.950683593751	604.9656982421877	53.22364425659183	2228.940917968751	401.3524475097659	54.47382736206058	2181.816406250001	338.0202636718751	62.81987380981448	1979.776000976563	74.55503082275393	130.4708862304688	1952.505371093751	104.5033721923829	90.47631835937503	2265.425048828126	1049.772094726563	164.9499053955079	2181.664062500001	399.7925415039065	69.95673370361331	2318.724853515626	642.9687500000002	77.43763732910159	2276.391601562501	1065.2216796875	262.9087829589845	2269.790283203126	1049.4609375	242.4462127685548	2227.348388671876	1245.539428710938	187.6637115478516	2262.650146484376	1040.978881835938	192.3935699462892	2277.389648437501	1104.289672851563	205.2410430908204	2268.530029296876	1504.189208984375	190.1248779296876	1952.349853515626	273.4243164062501	132.6982574462891	2253.964111328126	1413.338134765625	356.612518310547	
586	2.925	2395.068603515626	1422.2041015625	197.3120574951173	2461.665283203126	1232.625610351563	195.1233215332032	2455.829101562501	1042.41064453125	335.4322509765626	2433.593017578126	992.5907592773442	64.77297973632815	2449.291259765626	780.154663085938	381.8501892089845	2395.875000000001	748.968444824219	384.3002929687502	2418.642578125001	708.1667480468752	365.5734863281251	2451.651611328126	364.8402709960939	307.9776611328126	2414.073974609376	316.8251953125001	306.8494262695314	2451.364990234376	286.8414916992189	293.4747619628907	2387.767578125001	19.46878051757813	192.2295379638673	2546.609375000001	10.40373897552491	271.8497314453126	2601.301757812501	27.51394844055177	228.2711334228517	2348.295166015626	680.9346923828127	52.20830535888675	2371.459228515626	605.652526855469	53.58716583251956	2242.942138671876	402.8936462402346	54.58516311645511	2195.494873046876	339.7922973632814	62.73674774169925	1995.112548828126	76.46267700195315	127.6861953735352	1967.633911132813	106.846534729004	88.11251068115237	2271.321533203126	1050.355346679688	166.0674896240235	2195.665527343751	401.5296325683596	70.12770843505862	2328.999023437501	642.9754638671877	78.42154693603518	2282.289062500001	1065.849609375	263.7252197265626	2275.672363281251	1050.054931640625	243.4440002441407	2233.375488281251	1246.40869140625	188.4053955078126	2268.507080078126	1041.618041992188	193.3092193603517	2283.261718750001	1104.93310546875	206.0955047607423	2274.923095703126	1504.974853515625	190.6306610107422	1964.699707031251	275.0151672363282	133.0557098388672	2260.563720703126	1414.2021484375	357.2733154296876	
587	2.93	2401.372314453126	1422.852294921875	197.6343841552736	2467.628173828126	1233.139038085938	195.4772949218751	2461.602050781251	1042.580444335938	336.0216369628907	2439.321533203126	993.6849975585942	65.0922546386719	2453.316162109376	779.9739379882817	382.051727294922	2399.536376953126	749.1748657226565	384.4256286621096	2421.994384765626	708.1827392578127	365.717254638672	2453.209472656251	364.8457641601564	307.9361267089845	2415.375000000001	317.028533935547	306.7653198242189	2452.528808593751	286.8459472656251	293.4270629882814	2387.781982421876	19.56805038452149	192.1831054687501	2546.603515625001	10.4082841873169	271.8598632812501	2601.435791015626	27.41128158569337	228.2291259765626	2357.437500000001	681.317077636719	52.85070419311526	2381.872314453126	606.455993652344	53.96548461914065	2256.894042968751	404.5681762695315	54.83820343017581	2209.204101562501	341.6375122070314	62.69988250732425	2011.119018554688	78.17867279052737	125.0342483520508	1983.434326171876	108.8623275756837	85.77162170410159	2277.207275390626	1050.983276367188	167.1576232910157	2209.626953125001	403.3223266601565	70.45154571533206	2339.163330078126	643.094177246094	79.37221527099612	2288.145263671876	1066.461303710938	264.5500793457032	2281.520751953126	1050.651489257813	244.4331665039064	2239.363769531251	1247.27685546875	189.1770782470704	2274.345458984376	1042.275512695313	194.2162322998048	2289.106689453126	1105.582885742188	206.9753875732423	2281.291748046876	1505.760009765625	191.1251983642579	1977.103271484376	276.2297363281251	133.3288726806641	2267.132324218751	1415.090209960938	357.9417114257814	
588	2.935	2407.646240234376	1423.4921875	197.9593963623048	2473.555908203126	1233.645385742188	195.8620910644532	2467.311035156251	1042.699829101563	336.6580810546876	2445.070556640626	994.8141479492192	65.45056152343753	2457.271972656251	779.7650756835942	382.234100341797	2403.139648437501	749.342956542969	384.538024902344	2425.326171875001	708.1771240234377	365.8371582031251	2454.754394531251	364.856903076172	307.858123779297	2416.674560546876	317.2346191406251	306.6553039550782	2453.690673828126	286.8611145019532	293.3443298339845	2387.798339843751	19.67344284057618	192.1199188232423	2546.593261718751	10.41430854797364	271.869354248047	2601.567626953126	27.31104469299318	228.191864013672	2366.499511718751	681.787536621094	53.47259140014651	2392.209472656251	607.3654785156252	54.35977935791018	2270.794189453126	406.3518371582034	55.22450256347659	2222.941894531251	343.5306701660157	62.70500564575198	2027.724365234376	79.69548034667972	122.5285263061524	1999.830688476563	110.5570831298829	83.48182678222659	2283.083496093751	1051.659423828125	168.2013092041016	2223.543457031251	405.1473083496096	70.91390228271487	2349.226318359376	643.3100585937502	80.28125762939456	2293.961181640626	1067.057373046875	265.3721618652345	2287.336181640626	1051.252075195313	245.3969573974611	2245.316894531251	1248.141967773438	189.9768524169922	2280.166503906251	1042.952026367188	195.1002960205079	2294.927246093751	1106.239135742188	207.8689575195314	2287.637207031251	1506.543090820313	191.6097106933594	1989.581909179688	277.068817138672	133.5093688964844	2273.670898437501	1415.999633789063	358.6179504394532	
